<?xml version="1.0" encoding="utf-8"?>
<!-- Generator: Adobe Illustrator 26.4.0, SVG Export Plug-In . SVG Version: 6.00 Build 0)  -->
<svg version="1.1" id="Layer_1" xmlns="http://www.w3.org/2000/svg" xmlns:xlink="http://www.w3.org/1999/xlink" x="0px" y="0px"
	 viewBox="0 0 313.2 223.4" style="enable-background:new 0 0 313.2 223.4;" xml:space="preserve">
<style type="text/css">
	.st0{fill:url(#SVGID_1_);}
	.st1{fill:url(#SVGID_00000166664174455474946940000001289893187501424821_);}
	.st2{display:none;}
	.st3{display:inline;fill:#FFFFFF;}
	.st4{fill:#FFFFFF;}
</style>
<g>
	<linearGradient id="SVGID_1_" gradientUnits="userSpaceOnUse" x1="19.7422" y1="206.7665" x2="272.4175" y2="-17.6007">
		<stop  offset="0" style="stop-color:#FF5E70"/>
		<stop  offset="1" style="stop-color:#FFE6A7"/>
	</linearGradient>
	<path class="st0" d="M1.8,165.5c0.1,0.7,0.2,1.4,0.3,2.1c0,0,0,0.1,0,0.1c7.6,39.8,58.1,53.8,85.1,23.4c0,0,0,0,0,0
		c18.4-19.1,47.9-25.6,71.7-17.5c0.9,0.3,1.9,0.7,2.8,1c0,0,0,0,0,0c63.5,20.4,117.7-51.7,79.2-107.3c-0.5-0.7-0.9-1.3-1.4-1.9l0,0
		c0,0-0.1-0.1-0.1-0.1C154.6-46.6-19.5,28.3,1.8,165.5z"/>
	
		<linearGradient id="SVGID_00000015355008600879080760000012418693417387855267_" gradientUnits="userSpaceOnUse" x1="316.0485" y1="50.2768" x2="106.3595" y2="199.156">
		<stop  offset="0" style="stop-color:#1C0A5A"/>
		<stop  offset="1" style="stop-color:#FF5E70"/>
	</linearGradient>
	<path style="fill:url(#SVGID_00000015355008600879080760000012418693417387855267_);" d="M291.9,22.7c-0.4-0.6-0.7-1.2-1.1-1.7
		c0,0,0-0.1,0-0.1c-22.4-32.8-73.2-25.6-85.5,12.2c0,0,0,0,0,0c-9.1,24.3-33,41.7-57.5,43.7c-1,0.1-2,0.1-2.9,0.2c0,0,0,0,0,0
		c-64.9,6.5-85.4,92.4-29.1,127.2c0.7,0.4,1.3,0.8,2,1.2l0,0c0,0,0.1,0,0.1,0.1C237.7,272.7,364.6,137.5,291.9,22.7z"/>
	<g class="st2">
		<polygon class="st3" points="50.1,97.7 47.4,115.6 44.9,129.7 51.8,129.7 54.2,115.8 57.4,97.7 		"/>
		<path class="st3" d="M68.5,107.1c-6.6,0-12,4.8-13.1,11.1c-1,6.5,2.8,12,10.6,12c4,0,7-1.2,9.5-3.6l-4.6-4.3
			c-1.2,1.1-2.6,1.6-4.3,1.6c-1.9,0-3.7-0.5-4.2-2.7h15c0.4-1,0.7-2.1,0.8-2.7C79.3,112.2,75.1,107.1,68.5,107.1z M63.2,116.3
			c1-2,2.8-3,4.8-3c1.8,0,3.3,0.8,3.5,3H63.2z"/>
		<path class="st3" d="M99.7,107.7l-2.2,2.4c0,0,0,0,0,0c0-0.1-0.1-0.1-0.1-0.2c-1.2-1.8-3.1-2.8-5.9-2.8c-6.6,0-11,5.5-11.9,11.3
			c-0.5,3.2,0,6.4,1.7,8.6c1.4,2,3.7,3.3,6.8,3.3c2.7,0,4.8-0.8,6.4-2.3l-0.3,1.7h7.3l3.9-21.9H99.7z M96,118.7v0.1
			c-0.5,2.8-2.7,4.6-5.4,4.6c-1.9,0-3.2-0.9-3.7-2.5c-0.2-0.7-0.2-1.4-0.1-2.3c0.5-2.9,2.6-4.8,5.4-4.8c0.4,0,0.9,0.1,1.2,0.1
			C95.4,114.6,96.4,116.3,96,118.7z"/>
		<path class="st3" d="M165.5,107.8L165.5,107.8l-2.2,2.4l0,0c0-0.1-0.1-0.1-0.1-0.2c-1.2-1.8-3.1-2.8-5.9-2.8
			c-6.6,0-11,5.5-11.9,11.3c-0.5,3.2,0,6.4,1.7,8.6c1.4,2,3.7,3.3,6.8,3.3c2.7,0,4.8-0.8,6.4-2.3l-0.3,1.7h7.3l3.9-21.9H165.5z
			 M161.8,118.7v0.1c-0.5,2.8-2.7,4.6-5.4,4.6c-0.2,0-0.3,0-0.5,0c-1.7-0.1-2.8-1-3.2-2.5c-0.1-0.3-0.1-0.6-0.2-1
			c0-0.4,0-0.9,0.1-1.3c0.5-2.7,2.4-4.5,4.9-4.8c0.2,0,0.3,0,0.5,0c0.4,0,0.9,0.1,1.2,0.1C161.3,114.6,162.2,116.3,161.8,118.7z"/>
		<path class="st3" d="M125,99l-2,11.2c-1.2-1.9-3.2-3.1-6.1-3.1c-6.6,0-11,5.5-11.9,11.3c-1,6,1.8,11.9,8.4,11.9
			c2.7,0,4.8-0.9,6.4-2.4l-0.3,1.8h7.3l5.4-30.7H125z M121.5,118.5l-0.1,0.5c-0.6,2.8-2.7,4.5-5.4,4.5c-2.8,0-4.3-1.9-3.8-4.8
			c0.5-2.9,2.7-4.8,5.4-4.8C120.5,113.9,122,115.8,121.5,118.5z"/>
		<path class="st3" d="M142.2,107.7c0.4-2,1.9-2.8,4.2-2.6l1.2-6.8c-7.4-0.4-11.6,3.1-12.7,9.4h-2.8l-1.2,7h2.7l-2.6,15h7.3l2.6-15
			h3.8l1.2-7H142.2z"/>
		<path class="st3" d="M198.1,107.1c-2.8,0-5,1.2-6.7,2.9c-0.9-1.9-2.8-2.9-5.3-2.9c-2.5,0-4.6,1.1-6,2.5c0,0-0.1,0.1-0.1,0.1
			l-1.7-1.8l-0.2-0.2h-5l-3.9,21.9h7.3l2.2-12.3c0.5-2,1.7-3.4,3.6-3.4c1.8,0,2.5,1.2,2.2,3.1l-2.2,12.6h7.3l1.7-9.5l0.6-3.2
			c0.5-1.8,1.7-3,3.6-3c1.8,0,2.5,1.2,2.2,3.1l-1.3,7.7l-0.9,4.9h6h1.3l2.3-13.4C206,110.5,203,107.1,198.1,107.1z"/>
		<polygon class="st3" points="210,97.7 206.8,115.6 204.4,129.7 211.7,129.7 214.1,115.8 217.3,97.7 		"/>
		<path class="st3" d="M232.7,107.7l-5.7,12.7l-2.3-12.7H217l4.9,21.1c-1.3,2.2-2.6,2.8-5.8,2.8l-1.2,6.8c6.3,0.5,11.1-1.9,15-9.4
			l11.1-21.3H232.7z"/>
	</g>
</g>
<g id="Logo_00000145763393422253286020000013811809230614464918_">
	<path class="st4" d="M93.8,118.4c-1,6.3-5.5,11.6-12.1,11.6c-3.1,0-5.2-1.2-6.5-3.2L73,138.4h-7.6l5.6-32h5.6l1.7,1.9
		c1.6-1.6,3.8-2.5,6.5-2.5C91.2,105.9,94.8,111.7,93.8,118.4z M82.3,112.9c-2.8,0-5.1,1.8-5.7,4.8l-0.1,0.3c-0.4,3,1.2,4.8,4,4.8
		s5.1-1.9,5.6-5C86.7,114.9,85.2,112.9,82.3,112.9z"/>
	<path class="st4" d="M107.1,96l-3.3,18.9l-2.5,14.2v0.2c0,0.2-0.1,0.4-0.1,0.5l0,0l0,0h-7.6l0,0l0,0c0-0.2,0.1-0.4,0.1-0.5
		l2.6-14.7l3.3-18.7L107.1,96L107.1,96z"/>
	<path class="st4" d="M126,106.5l-2.2,2.5c-1.2-2-3.3-3.2-6.3-3.2c-6.9,0-11.4,5.7-12.4,11.7c-0.5,3.2,0,6.4,1.5,8.7
		c0.2,0.2,0.3,0.5,0.5,0.7c0.1,0.1,0.2,0.2,0.3,0.3c0.1,0.1,0.2,0.2,0.3,0.3c1.5,1.4,3.5,2.3,6.1,2.3c0.3,0,0.7,0,1,0l0,0
		c0.3,0,0.7-0.1,1-0.1l0,0l0,0c0.2,0,0.4-0.1,0.7-0.1l0,0c0.1,0,0.2-0.1,0.3-0.1c0.1,0,0.2-0.1,0.3-0.1c0.1,0,0.3-0.1,0.4-0.1
		c0.2-0.1,0.4-0.2,0.6-0.2c0.2-0.1,0.4-0.2,0.5-0.3c0.2-0.1,0.3-0.2,0.5-0.2c0.5-0.3,0.9-0.6,1.4-1c-0.1,0.6-0.2,1.2-0.3,1.8
		c0,0.2-0.1,0.4-0.1,0.5l0,0c0,0,0,0,0,0.1h7.6c0,0,0,0,0-0.1l0,0c1.4-7.8,2.7-15.6,4.1-23.4C129.8,106.5,127.9,106.5,126,106.5z
		 M116.5,122.9c-2.9,0-4.4-2-3.9-5s2.7-5,5.6-5c0.5,0,0.9,0,1.3,0.2c0.4,0.1,0.8,0.2,1.1,0.5c0.1,0.1,0.2,0.1,0.3,0.2
		c0.1,0.1,0.2,0.2,0.3,0.2c0.9,0.9,1.2,2.2,1,3.9v0.1C121.6,121,119.4,122.9,116.5,122.9z"/>
	<path class="st4" d="M157.5,106.5l-11.6,22.1c-4.1,7.8-9.1,10.4-15.6,9.8l1.3-7.1c3.3,0,4.6-0.7,6-2.9l-5.1-21.9h8l2.4,13.2
		l5.9-13.2H157.5z"/>
	<path class="st4" d="M175.2,106.5L173,109c-1.2-2-3.3-3.2-6.3-3.2c-6.9,0-11.4,5.7-12.4,11.7c-1.1,6.2,1.9,12.4,8.8,12.4
		c0.4,0,0.7,0,1,0s0.7-0.1,1-0.1l0,0c0.2,0,0.4-0.1,0.7-0.1c0.2,0,0.5-0.1,0.7-0.2c0.1,0,0.3-0.1,0.4-0.1c0.6-0.2,1.1-0.5,1.6-0.8
		s0.9-0.6,1.4-1c-0.1,0.4-0.1,0.7-0.2,1.1l-0.1,0.7c0,0.2-0.1,0.4-0.1,0.5l0,0c0,0,0,0,0,0.1h7.6c0,0,0,0,0-0.1
		c1.4-7.8,2.7-15.6,4.1-23.4L175.2,106.5L175.2,106.5z M165.7,122.9c-2.9,0-4.4-2-3.9-5s2.7-5,5.6-5c2.9,0,4.4,2,3.9,5v0.1
		C170.8,121,168.6,122.9,165.7,122.9z"/>
	<path class="st4" d="M197.5,105.9c-2.6,0-4.8,0.9-6.4,2.5l1.9-11l0,0l0.2-1.4h-7.6l-3.3,18.7l-2.4,13.7c0.2-1,0.4-2,0.5-3.1l0,0
		l0,0l0,0l-0.7,4.2l0.2-1c-0.1,0.5-0.2,1-0.3,1.5l0,0l0,0h7.6l0,0l0,0c0-0.2,0.1-0.4,0.1-0.5l0,0c0.2-0.9,0.3-1.7,0.5-2.6l0,0
		c1.2,2,3.4,3.2,6.5,3.2c6.6,0,11-5.2,12.1-11.6C207.6,111.7,204,105.9,197.5,105.9z M199,117.9c-0.5,3.1-2.8,5-5.6,5
		c-2.7,0-4.3-1.7-4-4.6c0-0.1,0-0.2,0-0.3c0-0.1,0.1-0.3,0.1-0.4l0,0c0.7-2.8,3-4.5,5.6-4.5C197.9,112.9,199.5,114.8,199,117.9z"/>
	<path class="st4" d="M219.9,96l-3.3,18.9l-2.6,14.4l0,0c0,0.2-0.1,0.4-0.1,0.5l0,0l0,0h-7.6l0,0l0,0c0.3-1.5,0.5-3.1,0.8-4.6l0,0
		l0,0l0,0l1.8-10.5l3.3-18.7C212.2,96,219.9,96,219.9,96z"/>
	<path class="st4" d="M241.5,117.9c-0.1,0.7-0.4,1.8-0.8,2.8H225c0.5,2.2,2.4,2.8,4.4,2.8c1.8,0,3.3-0.5,4.5-1.6l4.8,4.4
		c-2.6,2.5-5.8,3.7-10,3.7c-8.2,0-12.1-5.7-11-12.5c1.1-6.6,6.7-11.6,13.6-11.6C238.3,105.9,242.8,111.2,241.5,117.9z M234.7,115.4
		c-0.2-2.3-1.7-3.1-3.6-3.1c-2.1,0-3.9,1-5,3.1H234.7z"/>
</g>
</svg>
